<svg xmlns="http://www.w3.org/2000/svg" width="111" height="49">
  <path fill="none" d="M.169.096H111v71.843H.169z" />
  <path
    d="M21.169 37.059c0 3.371-.946 6.116-2.838 8.2-1.892 2.084-4.393 3.134-7.484 3.134-3.176 0-5.727-1.05-7.67-3.134-1.943-2.084-2.906-4.811-2.906-8.2V23.76h4.883v13.299c0 2.016.524 3.625 1.554 4.828C7.755 43.09 9.123 43.7 10.847 43.7c1.622 0 2.94-.61 3.937-1.813s1.504-2.829 1.504-4.828V23.76h4.883v13.299h-.002zm28.57-3.269c.068.847.101 1.542.101 2.084 0 3.592-1.149 6.573-3.447 8.945s-5.204 3.558-8.752 3.558c-3.582 0-6.606-1.203-9.073-3.625s-3.7-5.404-3.7-8.945c0-3.524 1.216-6.505 3.649-8.928 2.433-2.44 5.423-3.642 8.954-3.642 2.653 0 5.035.627 7.13 1.864 2.095 1.254 3.565 3.049 4.41 5.387l-4.376 1.542c-1.453-2.795-3.852-4.201-7.163-4.201-2.146 0-3.97.762-5.457 2.304-1.487 1.542-2.23 3.422-2.23 5.675 0 2.27.76 4.184 2.298 5.709 1.537 1.525 3.413 2.304 5.66 2.304 1.825 0 3.362-.491 4.663-1.491 1.284-1 2.146-2.355 2.551-4.083h-8.431V33.79h13.213zm24.599-6.895c2.45 2.44 3.666 5.421 3.666 8.945 0 3.507-1.216 6.472-3.666 8.894-2.45 2.44-5.44 3.642-8.971 3.642s-6.538-1.22-8.971-3.642c-2.45-2.44-3.666-5.404-3.666-8.894 0-3.524 1.216-6.505 3.666-8.945s5.44-3.659 8.971-3.659 6.521 1.202 8.971 3.659zm-3.48 14.62c1.487-1.508 2.247-3.405 2.247-5.675s-.743-4.184-2.247-5.709-3.328-2.304-5.508-2.304c-2.179 0-4.004.762-5.508 2.304-1.487 1.542-2.247 3.439-2.247 5.709s.743 4.168 2.247 5.675c1.487 1.508 3.328 2.27 5.508 2.27 2.179 0 4.021-.762 5.508-2.27zm28.045 6.336H81.62V23.76h4.882v19.669h12.401z" />
  <linearGradient id="a" gradientUnits="userSpaceOnUse" x1="76.847" y1="18.665" x2="76.847" y2="19.665"
    gradientTransform="matrix(7.9913 0 0 -24.2259 -507.152 476.516)">
    <stop offset="0" stop-color="#ed4156" />
    <stop offset="1" stop-color="#e32b3a" />
  </linearGradient>
  <path fill="url(#a)" d="M102.958 20.508V.111l7.991 3.828v20.397z" />
  <path opacity=".1" d="M102.958 20.508V.111l7.991 3.828z" />
  <linearGradient id="b" gradientUnits="userSpaceOnUse" x1="76.502" y1="18.74" x2="77.191" y2="19.59"
    gradientTransform="matrix(7.9913 0 0 -24.2259 -507.152 476.516)">
    <stop offset="0" stop-opacity="0" />
    <stop offset=".984" stop-opacity=".984" />
    <stop offset="1" />
  </linearGradient>
  <path opacity=".3" fill="url(#b)" d="M102.958 20.508V.111l7.991 3.828v20.397z" />
  <linearGradient id="c" gradientUnits="userSpaceOnUse" x1="55.018" y1="-61.852" x2="54.991" y2="-63.206"
    gradientTransform="matrix(26.3562 0 0 -3.8287 -1351.934 -237.385)">
    <stop offset="0" stop-color="#ff3b4f" />
    <stop offset="1" stop-color="#ff4961" />
  </linearGradient>
  <path fill="url(#c)" d="M84.593.111h18.365l7.991 3.828H92.568z" />
</svg>