<?xml version="1.0" standalone="no"?>
<!DOCTYPE svg PUBLIC "-//W3C//DTD SVG 20010904//EN"
 "http://www.w3.org/TR/2001/REC-SVG-20010904/DTD/svg10.dtd">
<svg version="1.0" xmlns="http://www.w3.org/2000/svg"
 width="180.000000pt" height="180.000000pt" viewBox="0 0 180.000000 180.000000"
 preserveAspectRatio="xMidYMid meet">
<metadata>
Created by potrace 1.11, written by Peter Selinger 2001-2013
</metadata>
<g transform="translate(0.000000,180.000000) scale(0.100000,-0.100000)"
fill="#000000" stroke="none">
<path d="M685 1790 c-3 -5 -19 -10 -35 -10 -16 0 -31 -4 -35 -9 -3 -5 -19 -13
-37 -16 -17 -4 -48 -16 -67 -27 -66 -37 -156 -92 -173 -107 -17 -14 -18 -61
-18 -721 0 -660 1 -707 18 -721 17 -15 107 -70 173 -107 19 -11 50 -23 67 -27
18 -3 34 -11 37 -16 4 -5 19 -9 35 -9 16 0 32 -4 35 -10 8 -14 422 -14 430 0
3 6 19 10 35 10 16 0 31 4 35 9 3 5 19 13 37 16 17 4 48 16 67 27 82 46 158
94 181 115 14 13 28 23 32 23 5 0 8 5 8 10 0 7 -152 10 -435 10 -239 0 -435 3
-435 6 0 3 13 24 29 47 16 23 64 96 106 161 42 66 98 151 124 190 25 39 48 76
51 81 3 6 32 51 64 100 118 180 185 282 257 394 41 63 104 160 140 215 l65
101 -403 3 c-395 2 -403 3 -403 22 0 20 8 20 428 20 383 1 425 2 407 16 -11 8
-29 23 -40 32 -20 17 -106 71 -176 110 -19 11 -50 23 -67 27 -18 3 -34 11 -37
16 -4 5 -19 9 -35 9 -16 0 -32 5 -35 10 -4 6 -87 10 -215 10 -128 0 -211 -4
-215 -10z"/>
<path d="M224 1513 c-89 -103 -161 -222 -179 -296 -4 -15 -11 -30 -16 -33 -5
-3 -9 -16 -9 -29 0 -13 -4 -27 -10 -30 -14 -8 -14 -442 0 -450 6 -3 10 -17 10
-30 0 -13 5 -27 10 -30 6 -3 10 -14 10 -23 1 -46 108 -221 195 -317 l45 -50 0
673 c0 369 -1 672 -3 672 -2 0 -25 -26 -53 -57z"/>
<path d="M1507 1498 c-23 -32 -131 -199 -152 -236 -5 -9 -12 -19 -15 -22 -3
-3 -68 -102 -144 -220 -185 -286 -293 -453 -398 -613 l-86 -132 424 -3 424 -2
32 36 c70 79 168 248 168 288 0 8 5 18 10 21 6 3 10 17 10 30 0 13 5 27 10 30
6 4 10 90 10 225 0 135 -4 221 -10 225 -5 3 -10 17 -10 30 0 13 -4 26 -9 29
-5 3 -12 18 -16 33 -24 98 -170 313 -212 313 -6 0 -23 -15 -36 -32z"/>
</g>
</svg>
