<svg xmlns="http://www.w3.org/2000/svg" viewBox="0 0 160 118.194">
  <defs>
    <style>
      .cls-1 {
      }
    </style>
  </defs>
  <path id="Path_130" data-name="Path 130" class="cls-1" d="M159.95,91.255,101.677,70.1,93.333,84.156c-15.062-.071-29.071-1.633-40.8-4.544C39.758,76.453,30.053,71.8,24.213,66.158c-5.489-5.289-7.509-11.253-6.1-17.394C19.382,43.085,23.642,37.3,30.185,31.9c6.06-5.005,14.1-9.691,23.494-13.809A194.689,194.689,0,0,1,83.1,8.19a257.047,257.047,0,0,1,31.706-5.964c5.314-.674,10.627-1.207,15.941-1.562,5.27-.355,10.539-.568,15.765-.6C141.375-.01,136.105.1,130.748.381s-10.8.71-16.248,1.278A282.465,282.465,0,0,0,81.3,7.267a234.748,234.748,0,0,0-32.5,9.939c-5.27,2.094-10.32,4.331-14.975,6.745A116.094,116.094,0,0,0,20.48,31.9,72.453,72.453,0,0,0,9.633,41.026,39.054,39.054,0,0,0,2.387,51.178C-1.17,58.562-.906,66.016,3.661,72.938,8.623,80.428,18.5,87.031,33,91.93a154.367,154.367,0,0,0,25.646,6A228.241,228.241,0,0,0,83.8,100.236l-10.759,18Z" transform="translate(0.05 -0.04)"/>
</svg>
