<svg width="59" height="76" viewBox="0 0 59 76" xmlns="http://www.w3.org/2000/svg">
  <path fill-rule="evenodd" clip-rule="evenodd"
    d="M30.2821 47.9537L35.2682 42.4818V51.787H41.4473V28.8252H39.2176L29.973 39.4754L20.7273 28.8252H18.4997V51.787H24.6766V42.4818L29.6649 47.9537H30.2821ZM30.812 21.224L29.973 4.29477L29.135 21.224C27.3936 21.6222 26.0892 23.2312 26.0892 25.1588H33.8568C33.8568 23.2312 32.5534 21.6222 30.812 21.224ZM35.2693 32.4251V28.8252H24.6766V32.4251L25.3824 33.24V29.5583H26.0903V34.0505L26.7949 34.8654V29.5583H27.5007V35.6792L28.2086 36.4919V29.5583H28.9133V37.3046L29.6201 38.1184V29.5583H30.328V38.1184L31.0327 37.3046V29.5583H31.7384V36.4919L32.4453 35.6792V29.5583H33.151V34.8654L33.8568 34.0505V29.5583H34.5625V33.24L35.2693 32.4251ZM23.9709 28.0922H35.9751V25.8919H23.9709V28.0922ZM46.0478 75.9389H46.6224V73.5739H47.8974V73.1474H46.0478V75.9389ZM45.0219 74.2241C44.999 74.2797 44.9695 74.3266 44.9335 74.3615C44.8963 74.3964 44.8548 74.4215 44.8067 74.4368C44.7576 74.451 44.7084 74.4586 44.656 74.4586H44.2769V73.5728H44.6363C44.7565 73.5728 44.8548 73.6088 44.9345 73.6764C45.0154 73.7463 45.0547 73.8586 45.0547 74.019C45.0547 74.0986 45.0427 74.1673 45.0219 74.2241ZM44.7182 73.1474H43.6979V75.94H44.2801L44.2769 74.8688H44.7652C44.9236 74.8688 45.0591 74.8415 45.1694 74.7891C45.2809 74.7368 45.3715 74.6691 45.4415 74.5862C45.5114 74.5033 45.5627 74.4117 45.5944 74.3081C45.625 74.2055 45.6414 74.1041 45.6414 74.0037C45.6414 73.7408 45.5638 73.5324 45.4109 73.3797C45.2568 73.2248 45.0263 73.1474 44.7182 73.1474ZM42.4273 74.1706L42.1968 74.8448H42.1771L41.9422 74.1706L41.5631 73.1474H40.9885L41.8483 75.2168H41.9925L41.9302 75.388C41.904 75.4578 41.8734 75.5047 41.8374 75.5266C41.8002 75.5473 41.7565 75.5582 41.7041 75.5582C41.6636 75.5582 41.6199 75.5549 41.573 75.5484C41.5249 75.5418 41.4615 75.5298 41.3872 75.5146L41.2977 75.9204C41.4244 75.9575 41.5325 75.9804 41.6199 75.9891C41.7073 75.9978 41.7805 76 41.8406 76C41.9837 76 42.1028 75.9662 42.199 75.8996C42.294 75.832 42.3716 75.7153 42.436 75.5506L43.3537 73.1474H42.7867L42.4273 74.1706ZM40.0424 75.4142C39.9605 75.4917 39.8654 75.5298 39.7562 75.5298H39.2558V74.6451H39.7212C39.7813 74.6451 39.8381 74.6539 39.8905 74.668C39.9452 74.6822 39.9921 74.7073 40.0326 74.7433C40.073 74.7782 40.1047 74.8229 40.1276 74.8775C40.1516 74.9309 40.1626 74.9953 40.1626 75.0706C40.1626 75.2233 40.1222 75.3367 40.0424 75.4142ZM40.5056 74.4488C40.4237 74.379 40.3243 74.3277 40.2085 74.2928C40.0916 74.2568 39.9637 74.2393 39.8228 74.2393H39.2558V73.5575H40.4991V73.1474H38.6779V75.94H39.8927C40.026 75.94 40.1462 75.9204 40.2533 75.8789C40.3603 75.8386 40.451 75.7807 40.5275 75.7066C40.6028 75.6335 40.6607 75.5407 40.7034 75.4317C40.7438 75.3248 40.7656 75.2026 40.7656 75.0673C40.7656 74.9288 40.7427 74.8088 40.6968 74.7062C40.6509 74.6026 40.5876 74.5175 40.5056 74.4488ZM37.7176 74.2241C37.6957 74.2797 37.6663 74.3266 37.6291 74.3615C37.5931 74.3964 37.5504 74.4215 37.5024 74.4368C37.4532 74.451 37.4041 74.4586 37.3516 74.4586H36.9725V73.5728H37.332C37.451 73.5728 37.5515 73.6088 37.6324 73.6764C37.7099 73.7463 37.7504 73.8586 37.7504 74.019C37.7504 74.0986 37.7394 74.1673 37.7176 74.2241ZM37.4139 73.1474H36.3935V75.94H36.9758L36.9725 74.8688H37.4609C37.6204 74.8688 37.7547 74.8415 37.8662 74.7891C37.9765 74.7368 38.0672 74.6691 38.1382 74.5862C38.2081 74.5033 38.2584 74.4117 38.2901 74.3081C38.3217 74.2055 38.3381 74.1041 38.3381 74.0037C38.3381 73.7408 38.2606 73.5324 38.1065 73.3797C37.9525 73.2248 37.722 73.1474 37.4139 73.1474ZM34.6062 74.6779H35.6746V74.2797H34.6062V73.5728H35.8778V73.1474H34.025V75.94H35.9325V75.5135H34.6062V74.6779ZM31.4129 73.5815H32.265V75.94H32.8353L32.8396 73.5815H33.6885V73.1474H31.4129V73.5815ZM29.8528 74.6779H30.9191V74.2797H29.8528V73.5728H31.1234V73.1474H29.2694V75.94H31.1769V75.5135H29.8528V74.6779ZM26.4661 75.94H27.0495L27.0451 73.5859H28.0895V75.94H28.6751V73.1485H26.4661V75.94ZM24.8481 75.0499H25.9231V74.6517H24.8481V75.0499ZM22.2862 73.5815H23.1384V75.94H23.7087L23.713 73.5815H24.5619V73.1474H22.2862V73.5815ZM21.8503 74.8142C21.8307 74.7608 21.8045 74.7117 21.7728 74.667C21.74 74.6233 21.7007 74.583 21.6526 74.547C21.6067 74.5131 21.5499 74.487 21.4855 74.4706L21.4887 74.4499C21.5718 74.4117 21.6439 74.3495 21.7018 74.2622C21.7608 74.1739 21.8034 74.0735 21.8329 73.959L22.0284 73.1594H21.4734L21.2932 73.8695C21.2713 73.9513 21.2462 74.0168 21.2123 74.067C21.1807 74.1172 21.1446 74.1553 21.1053 74.1815C21.067 74.2099 21.0244 74.2284 20.9807 74.2372C20.9359 74.247 20.8933 74.2513 20.8518 74.2513H20.5186V73.1561H19.9516V75.9389H20.5186V74.6942H20.8824C21.0212 74.6942 21.1249 74.727 21.1938 74.7935C21.2626 74.86 21.3139 74.956 21.3478 75.0837L21.575 75.9389H22.153L21.9039 74.9735C21.8875 74.92 21.8689 74.8655 21.8503 74.8142ZM18.799 74.2633H17.7557C17.7557 74.0768 17.7557 73.8913 17.7568 73.707C17.7579 73.5237 17.759 73.3383 17.759 73.1506H17.1756V75.94H17.759C17.759 75.7349 17.7579 75.5277 17.7568 75.3215C17.7557 75.1131 17.7557 74.9069 17.7557 74.6986H18.799V75.94H19.3813V73.1506H18.799V74.2633ZM15.2212 74.8971L15.42 74.1826L15.5849 73.5575H15.6035L15.7608 74.1619L15.9597 74.8971H15.2212ZM15.2452 73.1517L14.3297 75.94H14.9043L15.0955 75.3029H16.0777L16.2645 75.94H16.8588L15.9717 73.1517H15.2452ZM13.9058 75.4524C13.8468 75.4633 13.7878 75.4742 13.7299 75.4808C13.6698 75.4895 13.6163 75.4949 13.5649 75.4993C13.5147 75.5037 13.4732 75.5058 13.4415 75.5058C13.2962 75.5058 13.1727 75.4862 13.0722 75.4447C12.9717 75.4044 12.892 75.3433 12.8297 75.2626C12.7685 75.1808 12.7248 75.0804 12.6986 74.9604C12.6724 74.8393 12.6604 74.6997 12.6604 74.5404C12.6604 74.2121 12.7248 73.9677 12.8548 73.8074C12.9848 73.6459 13.176 73.5663 13.4262 73.5663C13.5049 73.5663 13.5912 73.5717 13.6862 73.5837C13.7813 73.5957 13.8807 73.6175 13.9856 73.647L14.0686 73.2074C13.9681 73.1757 13.8588 73.1485 13.7387 73.1266C13.6196 73.1059 13.4896 73.095 13.3519 73.095C13.093 73.095 12.881 73.1408 12.7117 73.2325C12.5446 73.3241 12.4113 73.4419 12.314 73.5837C12.2157 73.7255 12.1469 73.8837 12.1087 74.0572C12.0693 74.2306 12.0497 74.3975 12.0497 74.5601C12.0497 74.7608 12.0693 74.9462 12.1087 75.1175C12.1469 75.2909 12.2157 75.4404 12.314 75.5691C12.4113 75.6978 12.5413 75.7982 12.7052 75.8713C12.8679 75.9444 13.0733 75.9804 13.3213 75.9804C13.388 75.9804 13.4601 75.9782 13.5354 75.9706C13.6108 75.964 13.6862 75.9542 13.7605 75.9389C13.8348 75.9269 13.9058 75.9106 13.9757 75.8942C14.0445 75.8767 14.1079 75.8549 14.1658 75.8309L14.0719 75.4164C14.0194 75.4295 13.9637 75.4415 13.9058 75.4524ZM33.8906 57.2577V54.4116H33.3684L32.7391 54.6036V55.0094L33.3149 54.9538V57.2577H33.8906ZM30.5804 56.1134C30.6317 56.0436 30.6875 55.9629 30.7465 55.8723C30.8054 55.7839 30.8644 55.6923 30.9234 55.5985C30.9824 55.5047 31.0414 55.412 31.1004 55.3225C31.1594 55.2331 31.2151 55.1523 31.2632 55.0814H31.2916V56.1134H30.5804ZM31.8389 57.2588V56.5334H32.2377V56.1134H31.8389V54.4105H31.2348C31.1911 54.4738 31.1365 54.5524 31.072 54.6462C31.0076 54.74 30.9387 54.8414 30.8633 54.9505C30.7901 55.0607 30.7137 55.1741 30.6339 55.2909C30.5542 55.4076 30.4777 55.521 30.4034 55.629C30.3291 55.7392 30.2592 55.8396 30.1947 55.9323C30.1303 56.025 30.0779 56.1036 30.0331 56.1658V56.5334H31.2807V57.2588H31.8389ZM29.0575 55.6269C29.0465 55.6345 29.028 55.6454 29.0018 55.6639C28.9755 55.6825 28.9417 55.7021 28.8991 55.7218C28.8565 55.7425 28.8073 55.7599 28.7516 55.7752C28.6948 55.7905 28.6314 55.7981 28.5593 55.7981C28.4785 55.7981 28.4085 55.7861 28.3561 55.7621C28.3026 55.7381 28.26 55.7043 28.2272 55.6618C28.1933 55.6192 28.1715 55.569 28.1573 55.5123C28.1431 55.4556 28.1365 55.3923 28.1365 55.3247C28.1365 55.1807 28.1747 55.064 28.2512 54.9789C28.3277 54.8938 28.4391 54.8512 28.5844 54.8512C28.686 54.8512 28.768 54.8742 28.8313 54.9189C28.8947 54.9647 28.9428 55.0225 28.9755 55.0912C29.0083 55.1611 29.0302 55.2374 29.0411 55.3181C29.052 55.4 29.0575 55.4763 29.0575 55.5472V55.6269ZM28.8991 56.5606C28.8488 56.6392 28.7822 56.7057 28.7024 56.7592C28.6205 56.8137 28.52 56.8399 28.3987 56.8399C28.3364 56.8399 28.26 56.8355 28.1715 56.8257C28.0819 56.8159 27.9901 56.7941 27.894 56.7592L27.7913 57.1814C27.8514 57.2064 27.9377 57.2315 28.048 57.2534C28.1584 57.2763 28.2895 57.2883 28.4369 57.2883C28.6532 57.2883 28.8379 57.2479 28.9897 57.1672C29.1427 57.0864 29.2683 56.9741 29.3666 56.8312C29.4639 56.6894 29.5349 56.5214 29.5786 56.3283C29.6234 56.1352 29.6452 55.9258 29.6452 55.701C29.6452 55.5123 29.6277 55.3378 29.5906 55.1774C29.5535 55.016 29.4923 54.8774 29.4114 54.7596C29.3284 54.6407 29.2202 54.548 29.0859 54.4793C28.9504 54.4116 28.7843 54.3767 28.5877 54.3767C28.4413 54.3767 28.3069 54.3985 28.1824 54.4411C28.0589 54.4836 27.953 54.5458 27.8667 54.6265C27.7782 54.7084 27.7093 54.8087 27.6602 54.9276C27.6099 55.0476 27.5848 55.184 27.5848 55.3367C27.5848 55.4916 27.6077 55.6247 27.6514 55.737C27.6951 55.8494 27.7541 55.941 27.8295 56.0141C27.9049 56.0861 27.9934 56.1407 28.0961 56.1767C28.1966 56.2116 28.3069 56.2301 28.4238 56.2301C28.6325 56.2301 28.8368 56.1712 29.0378 56.0556L29.0618 56.0708C29.0531 56.1396 29.0378 56.2192 29.0116 56.3087C28.9865 56.3981 28.9493 56.4821 28.8991 56.5606ZM26.9402 57.2577V54.4116H26.418L25.7888 54.6036V55.0094L26.3656 54.9538V57.2577H26.9402ZM58.4584 63.0153L55.6442 65.868V63.0382H54.1901V68.821H54.7003L57.5047 65.976V68.8122H58.9741V63.0153H58.4584ZM48.5583 65.9323C48.5583 63.8542 51.3474 63.8542 51.3474 65.9323C51.3474 68.029 48.5583 68.029 48.5583 65.9323ZM47.0966 65.9323C47.0966 69.9347 52.8026 69.9347 52.8026 65.9323C52.8026 61.9419 47.0966 61.9419 47.0966 65.9323ZM44.0453 66.0098H43.0303V64.3604C43.3526 64.3604 43.7121 64.3506 44.0453 64.3604C44.8745 64.3648 44.8231 66.0098 44.0453 66.0098ZM41.6079 63.0383V68.8122H43.0303V67.3341H44.0551C46.7175 67.3341 46.7175 63.0481 44.0551 63.0383H41.6079ZM37.6444 68.8111H39.0493V64.3604H40.4095V63.0383H36.2777V64.3604H37.6444V68.8111ZM32.7828 68.8701C33.9649 68.8701 35.2125 68.2264 35.4223 66.5945H34.0228C33.872 67.2119 33.3881 67.5272 32.7828 67.5272C31.9394 67.5174 31.3998 66.7745 31.3998 65.9236C31.3998 64.968 31.9493 64.3189 32.7828 64.3189C33.3772 64.3189 33.7999 64.5807 33.9977 65.1676H35.3961C35.183 63.6251 33.9321 62.975 32.7828 62.975C31.3681 62.975 29.9391 63.9644 29.9282 65.9236C29.9391 67.8872 31.3681 68.8788 32.7828 68.8701ZM24.7891 65.9323C24.7891 63.8542 27.5782 63.8542 27.5782 65.9323C27.5782 68.029 24.7891 68.029 24.7891 65.9323ZM23.3296 65.9323C23.3296 69.9347 29.0323 69.9347 29.0323 65.9323C29.0323 61.9419 23.3296 61.9419 23.3296 65.9323ZM19.4196 66.0098V64.3604C19.7462 64.3604 20.1024 64.3506 20.4356 64.3604C21.2637 64.3648 21.2167 66.0098 20.4356 66.0098H19.4196ZM20.4432 63.0383H17.9982V68.8122H19.4196V67.3341H20.4432C23.1045 67.3341 23.1045 63.0481 20.4432 63.0383ZM15.4407 68.8111V64.3604H16.7976V63.0383H12.668V64.3604H14.0336V68.8111H15.4407ZM9.5446 66.4876H11.4357V65.1753H9.5446V64.3604H11.6039V63.0383H8.13202V68.8122H11.6728V67.4999H9.5446V66.4876ZM3.67468 65.5298L1.49955 63.023H0.97406V68.8122H2.42816V66.2378L3.60258 67.5272H3.76317L4.94633 66.2378V68.8122H6.40043V63.023H5.89352L3.67468 65.5298ZM57.9646 61.9659H55.8954L56.9322 63.0382L57.9646 61.9659ZM24.6766 57.2588V54.4029H14.05L4.20781 22.9607L29.973 3.52788L55.7392 22.9607L45.8981 54.4029H35.2803V57.2588H47.8974L58.973 21.8709L29.973 0L0.97406 21.8709L12.0519 57.2588H24.6766Z" />
</svg>