<?xml version="1.0" encoding="utf-8"?>
<!-- Generator: Adobe Illustrator 21.0.0, SVG Export Plug-In . SVG Version: 6.00 Build 0)  -->
<svg version="1.1" id="Layer_1" xmlns="http://www.w3.org/2000/svg" xmlns:xlink="http://www.w3.org/1999/xlink" x="0px" y="0px"
	 viewBox="0 0 219.7 102" style="enable-background:new 0 0 219.7 102;" xml:space="preserve">
<style type="text/css">
	.st0{fill:#AF9676;}
	.st1{fill:#FFFFFF;}
	.st2{fill:#717171;}
</style>
<g>
	<g>
		<path d="M6.8,40.1c-2.2-2-3.9-4.6-3.7-7.5C3.5,26.9,9,24.2,14,23.9c0.7-0.1,1.5-0.2,2.4-0.2c1.8,0,3.8,0.2,6,0.7
			c2.3,0.4,4,0.9,5.2,1.3c1.1,0.4,1.7,0.1,1.7-1v-4.6c0-0.4-0.1-0.8-0.4-1c-0.2-0.2-0.6-0.5-1.1-0.8c-1.2-0.7-2.8-1.3-5-1.8
			c-2.1-0.5-4.3-0.8-6.6-0.8c-5.7,0-9.9,1.1-12.4,3.4C1.3,21.5,0,24.6,0,28.5c0,1.6,0.2,3.1,0.7,4.5c0.5,1.4,1.3,2.7,2.5,4
			C4.1,38.1,5.3,39.1,6.8,40.1z"/>
		<path d="M28.4,43.3c-1.3-1.4-3.2-2.8-5.5-4.2l-8.1-4.8c-2.2-1.3-3.6-2.3-4.4-3.1c-0.7-0.7-1.1-1.7-1.1-2.8c0-1.8,0.7-3,2.2-3.8
			c-2.1,0.9-4.9,2.8-5.8,6.8c-1.2,5,2.4,8.9,5.6,11.4l4.6,2.8l0.8,0.5c2.2,1.3,3.7,2.4,4.4,3.3c0.8,0.9,1.1,2,1.1,3.3
			c0,2.1-0.6,3.6-1.8,4.6c-1.2,1-3.2,1.5-6.1,1.5c-3.6,0-7.5-0.7-11.9-2.1c-1.1-0.3-1.7,0-1.7,1v4.6c0,0.4,0.1,0.7,0.3,0.9
			c0.2,0.2,0.6,0.5,1.2,0.9c0.9,0.5,2.5,1.1,4.8,1.7c2.3,0.6,4.8,1,7.6,1c4.1,0,7.5-0.7,10-2c2.6-1.3,4.4-3.1,5.6-5.2
			c1.1-2.1,1.7-4.4,1.7-6.9c0-1.9-0.3-3.6-0.8-5.1C30.7,46.2,29.7,44.7,28.4,43.3z"/>
		<path d="M149,47.7V17.6c0-0.4-0.1-0.6-0.4-0.9c-0.3-0.3-0.6-0.4-0.9-0.4H141c-0.4,0-0.7,0.1-1,0.4c-0.3,0.3-0.4,0.5-0.4,0.9v30.2
			c0,3.5,0.4,6.4,1.3,8.9c0.9,2.5,2.1,4.4,3.8,5.9c1.6,1.4,3.5,2.5,5.8,3.2c2.3,0.7,4.8,1,7.6,1c2.2,0,4.2-0.2,6-0.6
			C151.2,67,149,55.1,149,47.7z"/>
		<path d="M175.3,16.3h-6.6c-0.4,0-0.7,0.1-1,0.4c-0.3,0.3-0.4,0.5-0.4,0.9v30.2c0,2.7-0.3,4.8-0.8,6.4c-0.5,1.6-1.5,2.8-2.8,3.6
			c-1.3,0.8-3.2,1.2-5.6,1.2c-2.4,0-4.2-0.4-5.5-1.2c-1.1-0.6-1.9-1.6-2.4-2.7c1.7,4.4,5.8,10.5,15.9,8.7c4.8-0.8,8.2-4.2,9.2-7.1
			c0.9-2.4,1.3-5.4,1.3-8.9V17.6c0-0.4-0.1-0.7-0.4-0.9C176,16.4,175.7,16.3,175.3,16.3z"/>
		<path d="M188.9,64.9l9.2-15.8l9.9,15.8c0.6,0.9,1.2,1.3,1.8,1.3h7.9c0.7,0,1.1-0.3,1.1-0.8c0-0.2,0-0.4-0.1-0.5l-14.8-23.6
			L218,17.6c0.1-0.2,0.1-0.3,0.1-0.4c0-0.3-0.1-0.5-0.3-0.6c-0.2-0.2-0.5-0.2-0.7-0.2h-7.3c-0.7,0-1.3,0.4-1.7,1.3l-9,15.6
			l-9.8-15.6c-0.6-0.9-1.2-1.3-1.8-1.3h-7.9c-0.3,0-0.6,0.1-0.8,0.3c-0.2,0.2-0.3,0.4-0.3,0.6c0,0.1,0,0.2,0.1,0.4L193.2,41
			l-14.3,23.8c-0.1,0.2-0.1,0.3-0.1,0.5c0,0.6,0.4,0.9,1.1,0.9h7.3C187.8,66.2,188.4,65.8,188.9,64.9z"/>
		<path d="M137.9,58.8h-12.4c-2,0-3.3-0.4-4.1-1.2c-0.8-0.8-1.1-2.3-1.1-4.5V17.7c0-0.3-0.1-0.6-0.4-0.9c-0.3-0.3-0.6-0.4-0.9-0.4
			h-6.7c-0.3,0-0.6,0.1-0.9,0.4c-0.3,0.3-0.4,0.6-0.4,0.9V53c0,3.6,0.7,6.4,2,8.4c1.3,2,3.1,3.4,5.4,4.2c2.3,0.8,5,1.1,8.2,1.1
			c1.6,0,3.6-0.1,6.1-0.3c2.5-0.2,4.3-0.4,5.3-0.6c0.5-0.1,0.9-0.2,1.1-0.4c0.2-0.2,0.3-0.5,0.3-1v-4.3c0-0.4-0.1-0.7-0.4-1
			C138.7,58.9,138.4,58.8,137.9,58.8z"/>
		<path d="M101.1,40.9c1.3-0.6,2.4-1.4,3.4-2.4c0.9-1,1.6-2.2,2.1-3.5c0.5-1.3,0.7-2.7,0.7-4.2v-1.3c0-2.5-0.5-4.6-1.5-6.4
			c-1-1.8-2.4-3.2-4.2-4.2c-1.8-1.1-4-1.8-6.4-2.3c-2.5-0.5-5.3-0.7-8.6-0.7c-2.4,0-4.5,0.1-6.5,0.2c-2,0.1-3.6,0.3-4.7,0.5
			c-0.3,0.1-0.6,0.1-0.9,0.2c0.3,1.1,0.8,2.3,1.6,3.3c1.9,2.4,4.2,3.3,6.3,3.6c2-0.1,3.4-0.1,4.3-0.1c0.1,0,0.2,0,0.4,0c0,0,0,0,0,0
			c0,0,0,0,0,0c2.7,0,4.9,0.2,6.5,0.6c1.7,0.4,2.9,1.1,3.7,2c0.7,0.9,1.1,2.2,1.1,3.8v0.9c0,1.9-0.6,3.5-1.8,4.6
			c-1.2,1.2-3.3,1.7-6.2,1.7h-8.5V24.9l-9.3,0v37.4c0,1.2,0.2,2,0.7,2.5c0.5,0.5,1.3,0.9,2.5,1.1c2.6,0.5,6.4,0.7,11.6,0.7
			c4.3,0,8-0.5,11-1.4c3-0.9,5.3-2.5,7-4.7c1.6-2.2,2.4-5,2.4-8.4v-1.1c0-2.5-0.6-4.6-1.7-6.3C104.7,43,103.1,41.7,101.1,40.9z
			 M98.4,52.1c0,2.4-0.8,4.2-2.5,5.3c-1.7,1.1-4.6,1.6-8.8,1.6c-0.4,0-1.3,0-2.7-0.1c-1.3,0-2.3-0.1-2.9-0.1V44.1h8.5
			c2.9,0,5,0.7,6.3,2c1.3,1.3,1.9,3,1.9,5.1V52.1z"/>
		<path d="M64.4,19.4c-3.6-2.4-8.2-3.6-14-3.6c-5.1,0-9.5,0.3-13.1,0.9c-0.7,0.1-1.3,0.3-1.6,0.6C35.2,17.6,35,18,35,18.7v46.2
			c0,0.4,0.1,0.7,0.4,1c0.3,0.3,0.6,0.4,0.9,0.4h6.7c0.3,0,0.7-0.1,0.9-0.4c0.3-0.3,0.4-0.6,0.4-1V49.1c0-0.3,0-0.7,0-1
			c0,0,0,0,0-0.1V23.8c1.8-0.2,3.8-0.3,6-0.3c3.5,0,6,0.6,7.6,1.8c1.6,1.2,2.4,3.2,2.4,6v0.6c0,1.9-0.3,3.4-1,4.6
			c-0.7,1.2-1.8,2.1-3.2,2.6c-0.6,0.2-1.3,0.4-2.1,0.6c-1.9,0.6-6.1,2.3-7.3,7.3c0,0.2-0.1,0.3-0.1,0.5c0.4,0,0.8,0,1.3,0.1
			c1.2,0.1,2,0.1,2.3,0.1c5.7,0,10.4-1.2,14-3.7c3.6-2.5,5.4-6.5,5.4-12v-0.6C69.7,25.8,67.9,21.8,64.4,19.4z"/>
		<path d="M13.7,24c0.1,0,0.2,0,0.3-0.1C14,24,13.9,24,13.7,24z"/>
	</g>
	<rect y="76.8" class="st0" width="218.8" height="25.2"/>
	<g>
		<path class="st1" d="M16.9,90.2c-0.8,0-1.4-0.2-1.8-0.6c-0.4-0.4-0.6-1-0.6-1.9v-3.2h1.2v3.2c0,0.6,0.1,1,0.4,1.2
			c0.3,0.3,0.7,0.4,1.3,0.4h0.9v-4.8h1.2v9.1h-1.2V90c-0.2,0-0.4,0.1-0.6,0.1C17.4,90.2,17.1,90.2,16.9,90.2z"/>
		<path class="st1" d="M23.7,91.2l-0.6,2.3h-1.2l2.2-9.1h1.7l2.2,9.1h-1.2l-0.6-2.3H23.7z M25,85.8L25,85.8l-1.1,4.5h2.2L25,85.8z"
			/>
		<path class="st1" d="M32.9,93.7c-0.5,0-0.9-0.1-1.2-0.2s-0.6-0.4-0.9-0.8s-0.4-0.8-0.6-1.4S30,89.9,30,89s0.1-1.7,0.2-2.3
			s0.3-1.1,0.5-1.4s0.5-0.6,0.9-0.8c0.3-0.1,0.7-0.2,1.1-0.2c0.4,0,0.8,0,1.1,0.1c0.4,0.1,0.6,0.1,0.8,0.2v0.6H33
			c-0.3,0-0.5,0.1-0.7,0.2s-0.4,0.3-0.6,0.6s-0.3,0.7-0.4,1.2c-0.1,0.5-0.1,1.1-0.1,1.9s0,1.4,0.1,1.9s0.2,0.9,0.4,1.2
			s0.4,0.5,0.6,0.6c0.2,0.1,0.5,0.2,0.8,0.2h1.7v0.6c-0.2,0.1-0.5,0.1-0.8,0.2S33.3,93.7,32.9,93.7z"/>
		<path class="st1" d="M39.5,84.3c0.4,0,0.8,0.1,1.2,0.2c0.3,0.1,0.6,0.4,0.9,0.8s0.4,0.8,0.6,1.4c0.1,0.6,0.2,1.4,0.2,2.3
			s-0.1,1.7-0.2,2.3c-0.1,0.6-0.3,1.1-0.6,1.4s-0.5,0.6-0.9,0.8c-0.3,0.1-0.7,0.2-1.2,0.2c-0.4,0-0.8-0.1-1.2-0.2s-0.6-0.4-0.9-0.8
			c-0.2-0.4-0.4-0.8-0.6-1.4s-0.2-1.4-0.2-2.3s0.1-1.7,0.2-2.3s0.3-1.1,0.6-1.4c0.2-0.4,0.5-0.6,0.9-0.8S39.1,84.3,39.5,84.3z
			 M39.5,92.9c0.2,0,0.4-0.1,0.6-0.2c0.2-0.1,0.4-0.3,0.5-0.6c0.1-0.3,0.3-0.7,0.4-1.2c0.1-0.5,0.1-1.1,0.1-1.9s0-1.4-0.1-1.9
			c-0.1-0.5-0.2-0.9-0.4-1.2c-0.1-0.3-0.3-0.5-0.5-0.6c-0.2-0.1-0.4-0.2-0.6-0.2s-0.4,0.1-0.6,0.2c-0.2,0.1-0.4,0.3-0.5,0.6
			s-0.3,0.7-0.4,1.2c-0.1,0.5-0.1,1.1-0.1,1.9s0,1.4,0.1,1.9s0.2,0.9,0.4,1.2c0.1,0.3,0.3,0.5,0.5,0.6
			C39.1,92.9,39.3,92.9,39.5,92.9z"/>
		<path class="st1" d="M48.8,88.7c0.5,0.1,0.9,0.4,1.1,0.9c0.2,0.4,0.3,0.9,0.3,1.5c0,0.5-0.1,0.9-0.2,1.2c-0.1,0.3-0.3,0.6-0.5,0.8
			c-0.2,0.2-0.5,0.4-0.9,0.5s-0.8,0.1-1.4,0.1c-0.4,0-0.8,0-1.1-0.1s-0.7-0.1-1-0.2v-8.8c0.3-0.1,0.7-0.2,1-0.2s0.7-0.1,1.1-0.1
			c0.9,0,1.6,0.2,2,0.6c0.4,0.4,0.6,1,0.6,1.8c0,0.4-0.1,0.8-0.2,1.1C49.5,88.2,49.2,88.4,48.8,88.7L48.8,88.7z M47.1,88.4
			c1,0,1.6-0.5,1.6-1.6c0-1-0.5-1.6-1.6-1.6h-0.8v3.2H47.1z M46.3,89.2v3.6h0.9c0.6,0,1.1-0.1,1.4-0.4c0.3-0.3,0.4-0.7,0.4-1.3
			c0-0.7-0.1-1.2-0.4-1.5c-0.3-0.3-0.7-0.4-1.4-0.4H46.3z"/>
		<path class="st1" d="M55.5,84.3c0.4,0,0.8,0.1,1.2,0.2c0.3,0.1,0.6,0.4,0.9,0.8s0.4,0.8,0.6,1.4c0.1,0.6,0.2,1.4,0.2,2.3
			s-0.1,1.7-0.2,2.3c-0.1,0.6-0.3,1.1-0.6,1.4s-0.5,0.6-0.9,0.8c-0.3,0.1-0.7,0.2-1.2,0.2c-0.4,0-0.8-0.1-1.2-0.2s-0.6-0.4-0.9-0.8
			c-0.2-0.4-0.4-0.8-0.6-1.4s-0.2-1.4-0.2-2.3s0.1-1.7,0.2-2.3s0.3-1.1,0.6-1.4c0.2-0.4,0.5-0.6,0.9-0.8S55,84.3,55.5,84.3z
			 M55.5,92.9c0.2,0,0.4-0.1,0.6-0.2c0.2-0.1,0.4-0.3,0.5-0.6c0.1-0.3,0.3-0.7,0.4-1.2c0.1-0.5,0.1-1.1,0.1-1.9s0-1.4-0.1-1.9
			c-0.1-0.5-0.2-0.9-0.4-1.2c-0.1-0.3-0.3-0.5-0.5-0.6c-0.2-0.1-0.4-0.2-0.6-0.2s-0.4,0.1-0.6,0.2c-0.2,0.1-0.4,0.3-0.5,0.6
			s-0.3,0.7-0.4,1.2c-0.1,0.5-0.1,1.1-0.1,1.9s0,1.4,0.1,1.9s0.2,0.9,0.4,1.2c0.1,0.3,0.3,0.5,0.5,0.6
			C55.1,92.9,55.3,92.9,55.5,92.9z"/>
		<path class="st1" d="M65.2,86.8L65.2,86.8l-2.7,6.8h-1.3v-9.1h1.2v6.8h0.1l2.6-6.8h1.4v9.1h-1.2V86.8z M63.7,82.8
			c0.3,0,0.6-0.1,0.8-0.2c0.2-0.1,0.4-0.3,0.5-0.4l0.5,0.5c-0.2,0.3-0.4,0.5-0.7,0.7c-0.3,0.2-0.7,0.3-1.1,0.3
			c-0.4,0-0.8-0.1-1.1-0.3s-0.6-0.4-0.7-0.7l0.5-0.5c0.1,0.1,0.3,0.3,0.5,0.4C63.2,82.7,63.4,82.8,63.7,82.8z"/>
		<path class="st1" d="M78,86.8L78,86.8l-2.7,6.8H74v-9.1h1.2v6.8h0.1l2.6-6.8h1.4v9.1H78V86.8z"/>
		<path class="st1" d="M88.1,89.4v4.2h-1.2v-9.1h1.2v4h1c0.1-0.8,0.1-1.5,0.3-2s0.3-1,0.5-1.3c0.2-0.3,0.5-0.5,0.8-0.7
			c0.3-0.1,0.7-0.2,1.1-0.2c0.4,0,0.8,0.1,1.1,0.2c0.3,0.1,0.6,0.4,0.9,0.8s0.4,0.8,0.5,1.4c0.1,0.6,0.2,1.4,0.2,2.3
			s-0.1,1.7-0.2,2.3c-0.1,0.6-0.3,1.1-0.5,1.4s-0.5,0.6-0.9,0.8c-0.3,0.1-0.7,0.2-1.1,0.2c-0.4,0-0.8-0.1-1.1-0.2
			c-0.3-0.1-0.6-0.4-0.8-0.7c-0.2-0.3-0.4-0.8-0.5-1.3c-0.1-0.5-0.2-1.2-0.3-2.1H88.1z M91.8,92.9c0.2,0,0.4-0.1,0.6-0.2
			c0.2-0.1,0.4-0.3,0.5-0.6c0.1-0.3,0.3-0.7,0.4-1.2s0.1-1.1,0.1-1.9s0-1.4-0.1-1.9c-0.1-0.5-0.2-0.9-0.4-1.2s-0.3-0.5-0.5-0.6
			c-0.2-0.1-0.4-0.2-0.6-0.2c-0.2,0-0.4,0.1-0.6,0.2c-0.2,0.1-0.4,0.3-0.5,0.6s-0.3,0.7-0.4,1.2c-0.1,0.5-0.1,1.1-0.1,1.9
			s0,1.4,0.1,1.9c0.1,0.5,0.2,0.9,0.4,1.2c0.1,0.3,0.3,0.5,0.5,0.6C91.4,92.9,91.6,92.9,91.8,92.9z"/>
		<path class="st1" d="M101,88.7c0.5,0.1,0.9,0.4,1.1,0.9c0.2,0.4,0.3,0.9,0.3,1.5c0,0.5-0.1,0.9-0.2,1.2c-0.1,0.3-0.3,0.6-0.5,0.8
			c-0.2,0.2-0.5,0.4-0.9,0.5s-0.8,0.1-1.4,0.1c-0.4,0-0.8,0-1.1-0.1s-0.7-0.1-1-0.2v-8.8c0.3-0.1,0.7-0.2,1-0.2s0.7-0.1,1.1-0.1
			c0.9,0,1.6,0.2,2,0.6c0.4,0.4,0.6,1,0.6,1.8c0,0.4-0.1,0.8-0.2,1.1C101.6,88.2,101.4,88.4,101,88.7L101,88.7z M99.3,88.4
			c1,0,1.6-0.5,1.6-1.6c0-1-0.5-1.6-1.6-1.6h-0.8v3.2H99.3z M98.5,89.2v3.6h0.9c0.6,0,1.1-0.1,1.4-0.4c0.3-0.3,0.4-0.7,0.4-1.3
			c0-0.7-0.1-1.2-0.4-1.5c-0.3-0.3-0.7-0.4-1.4-0.4H98.5z"/>
		<path class="st1" d="M106.3,92.6h3.2v0.9h-4.4v-9.1h4.4v0.9h-3.2v3h2.9v0.9h-2.9V92.6z"/>
		<path class="st1" d="M112.2,93.7c-0.2,0-0.4,0-0.6-0.1c-0.1,0-0.2,0-0.2-0.1V93c0.2,0,0.3,0,0.5-0.1c0.1-0.1,0.3-0.2,0.4-0.4
			s0.2-0.4,0.3-0.7c0.1-0.3,0.1-0.6,0.1-1l0.3-6.4h4.4v9.1h-1.2v-8.2h-2.1l-0.3,5.5c0,0.5-0.1,1-0.2,1.3c-0.1,0.4-0.2,0.7-0.4,0.9
			c-0.2,0.2-0.3,0.4-0.5,0.5C112.6,93.6,112.4,93.7,112.2,93.7z"/>
		<path class="st1" d="M124.5,86.8L124.5,86.8l-2.7,6.8h-1.3v-9.1h1.2v6.8h0.1l2.6-6.8h1.4v9.1h-1.2V86.8z"/>
		<path class="st1" d="M130,93.6h-1.2v-9c0.3-0.1,0.7-0.2,1-0.2c0.3,0,0.7-0.1,1.1-0.1c0.5,0,1,0.1,1.3,0.2s0.7,0.3,0.9,0.5
			c0.2,0.3,0.4,0.6,0.5,1c0.1,0.4,0.2,0.9,0.2,1.5c0,0.6-0.1,1.2-0.1,1.6c-0.1,0.4-0.3,0.8-0.5,1c-0.2,0.3-0.5,0.4-0.8,0.5
			s-0.7,0.2-1.1,0.2c-0.2,0-0.4,0-0.7,0s-0.5-0.1-0.6-0.1V93.6z M130.9,90c0.3,0,0.5,0,0.8-0.1c0.2-0.1,0.4-0.2,0.5-0.4
			c0.1-0.2,0.2-0.4,0.3-0.7c0.1-0.3,0.1-0.7,0.1-1.2c0-0.5,0-0.9-0.1-1.2c-0.1-0.3-0.2-0.6-0.3-0.7c-0.1-0.2-0.3-0.3-0.5-0.4
			c-0.2-0.1-0.5-0.1-0.8-0.1H130V90H130.9z"/>
		<path class="st1" d="M141.5,84.5v9.1h-1.2v-4.2h-2.7v4.2h-1.2v-9.1h1.2v4h2.7v-4H141.5z"/>
		<path class="st1" d="M147.1,88c0.8,0,1.4,0.2,1.8,0.7s0.6,1.2,0.6,2.2c0,0.5-0.1,0.9-0.2,1.3c-0.1,0.4-0.3,0.6-0.5,0.9
			c-0.2,0.2-0.5,0.4-0.9,0.5c-0.4,0.1-0.8,0.2-1.3,0.2c-0.4,0-0.8,0-1.1-0.1c-0.3,0-0.7-0.1-1-0.2v-9h1.2v3.7c0.2,0,0.4-0.1,0.6-0.1
			C146.7,88,146.9,88,147.1,88z M145.8,88.9v3.9h0.9c0.6,0,1-0.1,1.2-0.4c0.3-0.3,0.4-0.8,0.4-1.5c0-0.7-0.1-1.2-0.4-1.5
			c-0.3-0.3-0.7-0.4-1.2-0.4H145.8z M151.8,84.5v9.1h-1.2v-9.1H151.8z"/>
		<path class="st1" d="M159,86.8L159,86.8l-2.7,6.8h-1.3v-9.1h1.2v6.8h0.1l2.6-6.8h1.4v9.1H159V86.8z M157.5,82.8
			c0.3,0,0.6-0.1,0.8-0.2s0.4-0.3,0.5-0.4l0.5,0.5c-0.2,0.3-0.4,0.5-0.7,0.7c-0.3,0.2-0.7,0.3-1.1,0.3s-0.8-0.1-1.1-0.3
			c-0.3-0.2-0.5-0.4-0.7-0.7l0.5-0.5c0.1,0.1,0.3,0.3,0.5,0.4S157.2,82.8,157.5,82.8z"/>
		<path class="st1" d="M169,88h0.9c0.5,0,1,0.1,1.3,0.2c0.4,0.1,0.7,0.3,0.9,0.5c0.2,0.2,0.4,0.5,0.5,0.9c0.1,0.4,0.2,0.8,0.2,1.3
			c0,0.5-0.1,0.9-0.2,1.3c-0.1,0.4-0.3,0.6-0.5,0.9c-0.2,0.2-0.5,0.4-0.9,0.5c-0.4,0.1-0.8,0.2-1.3,0.2c-0.4,0-0.8,0-1.1-0.1
			c-0.3,0-0.7-0.1-1-0.2v-9h4.5v0.9H169V88z M169,88.9v3.9h0.9c0.6,0,1-0.1,1.3-0.4s0.4-0.8,0.4-1.5c0-0.7-0.1-1.2-0.4-1.5
			c-0.3-0.3-0.7-0.4-1.3-0.4H169z"/>
		<path class="st1" d="M176.9,93.7c-0.2,0-0.4,0-0.7-0.1c-0.2-0.1-0.5-0.1-0.6-0.2v-0.6h0.9c0.2,0,0.3,0,0.5-0.1
			c0.1-0.1,0.3-0.2,0.4-0.3c0.1-0.1,0.2-0.3,0.3-0.6c0.1-0.2,0.2-0.6,0.2-0.9c-0.5,0-1-0.1-1.3-0.4s-0.5-0.7-0.7-1.1l-1.4-4.9h1.2
			l1.4,4.9c0.1,0.5,0.5,0.7,0.9,0.7l1.1-5.7h1.2l-1.4,7c-0.2,0.8-0.4,1.3-0.7,1.7S177.4,93.7,176.9,93.7z"/>
		<path class="st1" d="M182,84.5h5.3v0.9h-2.1v8.2h-1.2v-8.2H182V84.5z"/>
		<path class="st1" d="M193.7,86.8L193.7,86.8l-2.7,6.8h-1.3v-9.1h1.2v6.8h0.1l2.6-6.8h1.4v9.1h-1.2V86.8z"/>
		<path class="st1" d="M200.8,88.8c0.2,0,0.3,0.1,0.4,0.2s0.3,0.2,0.4,0.3c0.1,0.1,0.2,0.3,0.3,0.5c0.1,0.2,0.1,0.4,0.2,0.7l0.3,1.7
			c0,0.2,0.1,0.4,0.3,0.6c0.2,0.2,0.4,0.3,0.7,0.3v0.6c-0.1,0-0.1,0-0.2,0.1c-0.2,0-0.3,0.1-0.6,0.1c-0.4,0-0.7-0.1-1-0.4
			c-0.3-0.3-0.4-0.7-0.5-1.2l-0.3-1.7c-0.1-0.5-0.2-0.8-0.5-0.9c-0.2-0.2-0.5-0.2-0.8-0.2h-0.5v4.3H198v-9.1h1.2v3.9h0.5
			c0.2,0,0.4-0.1,0.6-0.2c0.2-0.2,0.4-0.5,0.5-0.9l0.3-1.3c0.3-1,0.8-1.6,1.5-1.6c0.1,0,0.2,0,0.3,0c0.1,0,0.2,0,0.2,0
			c0.1,0,0.2,0,0.2,0.1V85c-0.3,0-0.6,0.1-0.7,0.2c-0.1,0.2-0.3,0.4-0.3,0.6l-0.3,1.3c-0.1,0.3-0.1,0.5-0.2,0.7
			c-0.1,0.2-0.2,0.3-0.3,0.5c-0.1,0.1-0.2,0.2-0.3,0.3C201.1,88.7,201,88.7,200.8,88.8L200.8,88.8z"/>
	</g>
</g>
<g>
	<path class="st2" d="M7.7,0.1h0.5v7.7H6.9V3L4.7,5.9H4.5L2.2,3v4.8H1V0.1h0.5l3.1,4L7.7,0.1z"/>
	<path class="st2" d="M16.1,8c-2.1,0-3.9-1.5-3.9-4s1.8-4,3.9-4c2.1,0,3.9,1.5,3.9,4C20.1,6.3,18.4,8,16.1,8z M16.1,6.8
		c1.4,0,2.6-1,2.6-2.8c0-1.8-1.2-2.8-2.6-2.8c-1.5,0-2.6,1-2.6,2.8C13.5,5.8,14.7,6.8,16.1,6.8z"/>
	<path class="st2" d="M27.6,0c1.5,0,3.1,0.8,3.5,2.6h-1.2c-0.4-1-1.2-1.4-2.3-1.4c-1.6,0-2.6,1.1-2.6,2.8c0,1.5,1,2.8,2.6,2.8
		c1.1,0,1.9-0.5,2.3-1.5h1.2c-0.4,1.9-2,2.7-3.5,2.7c-2.1,0-3.9-1.4-3.9-3.9C23.6,1.5,25.5,0,27.6,0z"/>
	<path class="st2" d="M36.3,3.5c0.6,0,1.2,0,1.5-0.2c0.5-0.2,0.7-1,0.9-1.8c0.3-1,0.9-1.7,2.5-1.4V1c-0.8-0.1-1,0.1-1.3,0.9
		c-0.2,0.8-0.5,1.6-1,2.1l2.5,3.7v0.2H40l-2.2-3.4c-0.3,0.1-1.1,0.1-1.4,0.1v3.2H35V0.1h1.3V3.5z"/>
	<path class="st2" d="M49.8,3.8c0.8,0.3,1.2,0.9,1.2,1.8c0,1.4-0.9,2.3-2.4,2.3h-3.4V0.1h3.1c1.4,0,2.4,0.7,2.4,2.2
		C50.7,2.9,50.4,3.5,49.8,3.8z M46.4,1.2v2.1h1.8c0.7,0,1.2-0.3,1.3-1c0-0.8-0.5-1.1-1.3-1.1H46.4z M46.4,4.4v2.3h2.1
		c0.7,0,1.2-0.4,1.3-1.1c0-0.4-0.1-0.7-0.4-0.9c-0.3-0.2-0.6-0.2-1-0.2H46.4z"/>
	<path class="st2" d="M56.1,6.2l-0.7,1.6H54V7.7l3.6-7.6h0.6l3.5,7.6v0.2h-1.3l-0.8-1.6H56.1z M56.5,5.2h2.7l-1.3-3.1L56.5,5.2z"/>
	<path class="st2" d="M84.8,0c1.5,0,3.1,0.8,3.5,2.6H87c-0.4-1-1.2-1.4-2.3-1.4c-1.6,0-2.6,1.1-2.6,2.8c0,1.5,1,2.8,2.6,2.8
		c1.1,0,1.9-0.5,2.3-1.5h1.2c-0.4,1.9-2,2.7-3.5,2.7c-2.1,0-3.9-1.4-3.9-3.9C80.9,1.5,82.7,0,84.8,0z"/>
	<path class="st2" d="M93.3,6.2l-0.7,1.6h-1.3V7.7l3.6-7.6h0.6l3.5,7.6v0.2h-1.3l-0.8-1.6H93.3z M93.7,5.2h2.7l-1.3-3.1L93.7,5.2z"
		/>
	<path class="st2" d="M107.3,7.8V4.4h-3.5v3.4h-1.3V0.1h1.3v3.1h3.5V0.1h1.3v7.7H107.3z"/>
	<path class="st2" d="M114.3,3.5c0.6,0,1.2,0,1.5-0.2c0.5-0.2,0.7-1,0.9-1.8c0.3-1,0.9-1.7,2.5-1.4V1c-0.8-0.1-1,0.1-1.3,0.9
		c-0.2,0.8-0.5,1.6-1,2.1l2.5,3.7v0.2H118l-2.2-3.4c-0.3,0.1-1.1,0.1-1.4,0.1v3.2H113V0.1h1.3V3.5z"/>
	<path class="st2" d="M122.4,1.3V0.1h5.7v1.1h-2.2v6.6h-1.3V1.3H122.4z"/>
	<path class="st2" d="M131.2,3.7h3.7v1h-3.7V3.7z"/>
	<path class="st2" d="M145.2,0.1v7.7c-0.4,0-0.9,0-1.3,0V1.3h-3.5v6.5c-0.4,0-0.8,0-1.3,0V0.1H145.2z"/>
	<path class="st2" d="M154.4,1.3H151v2h3.2v1.1H151v2.2h3.5v1.2h-4.8V0.1h4.7V1.3z"/>
	<path class="st2" d="M157.9,1.3V0.1h5.7v1.1h-2.2v6.6h-1.3V1.3H157.9z"/>
	<path class="st2" d="M172,1.3h-3.4v2h3.2v1.1h-3.2v2.2h3.5v1.2h-4.8V0.1h4.7V1.3z"/>
	<path class="st2" d="M176.3,7.8V0.1h3.2c1.7,0,2.7,1.3,2.7,2.7c0,1.4-1,2.7-2.7,2.7h-1.9v2.3H176.3z M179.5,4.4
		c0.9,0,1.5-0.7,1.5-1.6s-0.6-1.6-1.5-1.6h-1.9v3.2H179.5z"/>
	<path class="st2" d="M187.3,3.1h1.9c1.8,0,2.7,1,2.7,2.3c0,1.3-0.9,2.4-2.7,2.4c-1,0-2.1,0-3.2,0c0-2.6,0-5.1,0-7.7h5.2v1.1h-4V3.1
		z M187.3,4.2v2.5c0.6,0,1.3,0,1.9,0c1,0,1.5-0.6,1.5-1.3c0-0.7-0.5-1.3-1.5-1.3H187.3z"/>
	<path class="st2" d="M197.8,5.3l-2.8-5V0.1h1.4l2,3.8h0l1.8-3.8h1.4v0.1l-3,6.1c-0.6,1.3-1.4,2.1-3.1,1.4l0.2-1
		c0.8,0.4,1.3,0.1,1.6-0.6L197.8,5.3z"/>
	<path class="st2" d="M205.4,7.8V0.1h3.2c1.7,0,2.7,1.3,2.7,2.7c0,1.4-1,2.7-2.7,2.7h-1.9v2.3H205.4z M208.6,4.4
		c0.9,0,1.5-0.7,1.5-1.6s-0.6-1.6-1.5-1.6h-1.9v3.2H208.6z"/>
	<path class="st2" d="M216.4,1.3c0,2.2,0,4.4,0,6.6c-0.4,0-0.9,0-1.3,0c0-2.6,0-5.1,0-7.7c1.5,0,3.1,0,4.6,0c0,0.4,0,0.7,0,1.1
		H216.4z"/>
</g>
<circle class="st2" cx="71" cy="3.9" r="1.3"/>
</svg>
